<?xml version="1.0" encoding="UTF-8"?><svg id="Layer_1" xmlns="http://www.w3.org/2000/svg" viewBox="0 0 102.52 108.52"><defs><style>.cls-1{fill:#ffe8d1;}.cls-2{fill:#231f20;}.cls-3{fill:#ffc97d;}.cls-4{fill:#fff;}</style></defs><polygon class="cls-3" points="59.32 64.83 78.31 45.85 86.97 54.51 73.87 67.61 59.32 64.83"/><polygon class="cls-1" points="71.2 49.35 44.3 76.24 60.58 108.52 75.13 69.97 71.2 49.35"/><path class="cls-1" d="M30.78,60.18h4.27c14.23,0,25.79,11.56,25.79,25.79v22.3H4.99v-22.3c0-14.23,11.56-25.79,25.79-25.79Z"/><path d="M56.41,85.53h-3.89v-10.14c0-2.34-.91-4.54-2.57-6.2-1.65-1.65-3.85-2.57-6.19-2.57-4.83,0-8.76,3.93-8.76,8.76v10.14h-3.89v-10.14c0-6.98,5.68-12.65,12.65-12.65,3.38,0,6.55,1.32,8.94,3.71,2.39,2.39,3.71,5.57,3.71,8.95v10.14Z"/><rect class="cls-4" x="52.22" y="75.4" width="4.49" height="10.14"/><rect class="cls-4" x="30.69" y="75.4" width="4.73" height="10.14"/><rect x="30.6" y="82.38" width="6.8" height="8.33" rx="3.4" ry="3.4" transform="translate(-36.24 25.62) rotate(-27.62)"/><rect x="50.22" y="82.38" width="6.8" height="8.33" rx="3.4" ry="3.4" transform="translate(61.01 188.09) rotate(-152.38)"/><rect x="16.02" y="63.96" width="4.38" height="16.01"/><circle class="cls-4" cx="18.21" cy="85.03" r="6.1"/><circle class="cls-1" cx="18.21" cy="85.03" r="3.52"/><circle class="cls-2" cx="16.86" cy="30.69" r="14.75"/><circle class="cls-2" cx="45.54" cy="33.35" r="15.65"/><rect class="cls-3" x="0" y="35.67" width="65.83" height="15.28" rx="7.64" ry="7.64"/><circle class="cls-3" cx="32.91" cy="41.86" r="27.49"/><path class="cls-4" d="M45.68,48.61c0,7.05-5.72,12.77-12.77,12.77s-12.77-5.72-12.77-12.77h25.55Z"/><circle class="cls-2" cx="16.45" cy="23.99" r="12.25"/><circle class="cls-2" cx="25.94" cy="15.43" r="10.69"/><circle class="cls-2" cx="40.02" cy="17.41" r="14.29"/><circle class="cls-2" cx="52.48" cy="25.32" r="6.4"/><rect x="75.03" y="20.86" width="20.49" height="35.9" rx="4.37" ry="4.37" transform="translate(-8.42 39.03) rotate(-24.61)"/><rect class="cls-4" x="76.17" y="22.07" width="18.13" height="33.33" rx="3.44" ry="3.44" transform="translate(-8.39 39.01) rotate(-24.61)"/><rect x="74.07" y="22.89" width="9.02" height="2.64" rx=".6" ry=".6" transform="translate(-2.94 34.92) rotate(-24.61)"/><path class="cls-2" d="M88,44.7c-3.26,1.49-7.12.06-8.61-3.2s-.06-7.12,3.2-8.61,7.12-.06,8.61,3.2.06,7.12-3.2,8.61ZM83.17,34.15c-2.56,1.17-3.69,4.21-2.52,6.78s4.21,3.69,6.78,2.52,3.69-4.21,2.52-6.78-4.21-3.69-6.78-2.52Z"/><rect class="cls-2" x="83.64" y="38.45" width="1.43" height="3.94" rx=".72" ry=".72" transform="translate(17.07 105.41) rotate(-69.61)"/><rect class="cls-2" x="85.77" y="35.38" width="1.43" height="6.31" rx=".72" ry=".72" transform="translate(18.85 -27.72) rotate(20.39)"/><rect class="cls-3" x="90.46" y="29.81" width="6.49" height="6.12" rx="3.06" ry="3.06" transform="translate(-5.18 42) rotate(-24.61)"/><rect class="cls-3" x="92.49" y="34.26" width="6.49" height="6.12" rx="3.06" ry="3.06" transform="translate(-6.85 43.25) rotate(-24.61)"/><rect class="cls-3" x="94.69" y="39.05" width="6.49" height="6.12" rx="3.06" ry="3.06" transform="translate(-8.64 44.6) rotate(-24.61)"/><rect class="cls-3" x="68.87" y="41.63" width="16.35" height="7.1" rx="3.55" ry="3.55" transform="translate(43.46 127.94) rotate(-98.3)"/><path class="cls-3" d="M68.71,19.02l.29.52c.34.61-.19,1.33-.87,1.2l-.59-.12-.4.44c-.47.51-1.33.23-1.41-.46l-.07-.59-.54-.25c-.63-.29-.63-1.19,0-1.48l.54-.25.07-.59c.08-.69.94-.97,1.41-.46l.4.44.59-.12c.68-.14,1.21.59.87,1.2l-.29.52Z"/><path class="cls-3" d="M86.84,5.24l.67,1.18c.78,1.38-.43,3.03-1.98,2.72l-1.33-.27-.92,1c-1.07,1.17-3.02.53-3.2-1.04l-.16-1.35-1.24-.57c-1.44-.66-1.44-2.7,0-3.36l1.24-.57.16-1.35c.18-1.57,2.13-2.2,3.2-1.04l.92,1,1.33-.27c1.55-.31,2.75,1.34,1.98,2.72l-.67,1.18Z"/><path class="cls-3" d="M100.81,19.75l-.15.95c-.18,1.11-1.58,1.5-2.3.64l-.62-.74-.95.15c-1.11.18-1.92-1.03-1.32-1.99l.51-.82-.44-.86c-.51-1,.39-2.14,1.49-1.87l.94.23.68-.68c.8-.8,2.16-.29,2.24.83l.07.96.86.44c1,.51.94,1.96-.1,2.39l-.89.37Z"/></svg>