<?xml version="1.0" encoding="UTF-8"?><svg id="Layer_1" xmlns="http://www.w3.org/2000/svg" viewBox="0 0 161.9 111.01"><defs><style>.cls-1{fill:#231f20;}</style></defs><path class="cls-1" d="M111.74,73.99v-16.93c0-7.84-6.38-14.21-14.21-14.21h-35.36c-7.84,0-14.22,6.37-14.22,14.21v35.05c0,7.84,6.38,14.21,14.22,14.21h27.32c3.44,2.93,7.89,4.69,12.75,4.69,10.88,0,19.73-8.85,19.73-19.73,0-7.44-4.14-13.93-10.23-17.29ZM107.53,94.17l-5.48,5.48c-.52.52-1.22.74-1.9.69-.69.05-1.39-.17-1.91-.69l-6.06-6.06c-.95-.95-.95-2.5,0-3.45.95-.95,2.5-.95,3.45,0l4.52,4.52,7.33-7.33h.26v-.26l2-2,.62-.62c.38-.38.87-.61,1.38-.69.73-.1,1.5.13,2.06.69.95.95.95,2.5,0,3.45l-2.06,2.06-4.21,4.21ZM87.28,78.44c-1.26,1.46-2.31,3.1-3.09,4.89h-11.97v-13.54h15.06v8.65ZM102.24,71.55c-4.05,0-7.82,1.23-10.96,3.33v-5.09h16.46v2.55c-1.74-.52-3.59-.79-5.5-.79ZM51.95,57.06c0-5.63,4.59-10.21,10.22-10.21h.54v5.47c0,2.73,2.21,4.94,4.95,4.94h25.55c2.74,0,4.95-2.21,4.95-4.94v-5.45c5.34.32,9.58,4.77,9.58,10.19v8.73h-55.79v-8.73ZM51.95,69.79h16.27v13.54h-16.27v-13.54ZM51.95,92.11v-4.78h16.27v14.99h-6.05c-5.63,0-10.22-4.58-10.22-10.21ZM72.22,102.32v-14.99h10.69c-.26,1.28-.4,2.6-.4,3.95,0,4.09,1.25,7.89,3.38,11.04h-13.67Z"/><path class="cls-1" d="M2.82,47.09c-3.5-3.08-3.78-8.12-.63-11.71,3.15-3.59,8.19-3.96,11.69-.89,3.5,3.08,3.78,8.12.63,11.71-3.15,3.59-8.19,3.97-11.69.89ZM11.47,37.24c-2.05-1.8-4.94-1.61-6.71.4-1.77,2.02-1.59,4.9.47,6.71s4.94,1.62,6.71-.4c1.77-2.02,1.59-4.9-.47-6.71Z"/><path class="cls-1" d="M11.3,26.36l5.75-4.55c2.49-1.97,5.8-1.63,7.71.78s1.48,5.71-1.01,7.68l-2.95,2.34,3.14,3.96-2.79,2.21-9.83-12.43ZM16.18,26.79l2.54,3.21,2.9-2.29c.88-.7.99-1.93.28-2.83-.73-.92-1.93-1.08-2.82-.38l-2.9,2.29Z"/><path class="cls-1" d="M24.72,16.27l6.4-3.56c2.77-1.54,5.99-.67,7.48,2.02,1.49,2.69.53,5.88-2.24,7.42l-3.29,1.83,2.45,4.42-3.11,1.73-7.7-13.85ZM29.46,17.47l1.98,3.57,3.23-1.8c.98-.55,1.29-1.74.73-2.75-.57-1.02-1.74-1.37-2.72-.83l-3.23,1.8Z"/><path class="cls-1" d="M39.84,8.14l4.19-1.36,6.77,6.4,1.73-9.16,4.15-1.35,4.9,15.07-3.39,1.1-3.27-10.05-1.64,8.84-1.92.63-6.51-6.19,3.27,10.05-3.39,1.1-4.9-15.07Z"/><path class="cls-1" d="M64.92,14.92c-1.47-1.3-2.47-3.16-2.7-5.33-.48-4.64,2.74-8.53,7.5-9.02,1.67-.17,3.24.1,4.6.75l.7-1.02,2.9-.3-1.72,2.53c1.47,1.3,2.47,3.14,2.7,5.33.48,4.64-2.75,8.53-7.5,9.02-1.67.17-3.24-.1-4.63-.75l-.7,1.02-2.9.3,1.75-2.54ZM66.99,11.91l5.3-7.66c-.67-.25-1.42-.36-2.22-.28-2.67.28-4.5,2.52-4.22,5.24.11,1.05.53,1.98,1.13,2.7ZM75.27,8.24c-.11-1.07-.53-2-1.16-2.72l-5.28,7.66c.68.28,1.42.38,2.22.3,2.67-.28,4.5-2.52,4.22-5.24Z"/><path class="cls-1" d="M84.34,3.71l-4.15-.24.19-3.35,11.85.68-.19,3.35-4.15-.24-.71,12.47-3.55-.2.71-12.47Z"/><path class="cls-1" d="M96.01,1.36l10.31,2.08-.66,3.29-6.82-1.38-.56,2.79,6.08,1.23-.66,3.29-6.08-1.23-.58,2.88,6.93,1.4-.66,3.29-10.42-2.11,3.14-15.53Z"/><path class="cls-1" d="M110.43,4.58l7.37,2.7c2.24.82,3.38,3.05,2.57,5.27-.5,1.36-1.61,2.32-2.77,2.55,1.2,1.05,1.6,2.98.95,4.75-.86,2.35-3.27,3.38-5.68,2.49l-7.89-2.89,5.46-14.88ZM110.5,14.41l-1.18,3.21,3.84,1.41c.91.33,1.85-.11,2.18-1.01.33-.91-.1-1.87-1-2.2l-3.84-1.41ZM112.56,8.78l-1.03,2.8,3.3,1.21c.78.28,1.6-.1,1.89-.89.3-.82-.07-1.62-.87-1.91l-3.3-1.21Z"/><path class="cls-1" d="M121.6,17.17c2.36-4.02,7.26-5.25,11.38-2.84s5.45,7.29,3.09,11.31c-2.36,4.02-7.26,5.25-11.38,2.84-4.12-2.41-5.45-7.29-3.09-11.31ZM132.92,23.79c1.38-2.36.65-5.16-1.67-6.51-2.32-1.36-5.12-.63-6.5,1.73-1.38,2.36-.65,5.16,1.67,6.51,2.32,1.36,5.12.63,6.5-1.73Z"/><path class="cls-1" d="M143.56,21.56l2.7,2.32-4.4,5.13,8.49-1.61,3.29,2.83-9.42,1.7-.75,10.47-3.36-2.89.6-7.05-2.05.27-2.74,3.19-2.7-2.32,10.32-12.03Z"/><path class="cls-1" d="M159.23,36.6l2.66,3.25-8.47,14.67-2.48-3.02,1.54-2.51-4.09-4.99-2.78,1-2.42-2.95,16.03-5.45ZM154.29,46l3.22-5.31-5.84,2.11,2.62,3.2Z"/></svg>