<?xml version="1.0" encoding="UTF-8"?><svg id="Layer_1" xmlns="http://www.w3.org/2000/svg" viewBox="0 0 87.61 87.05"><defs><style>.cls-1{fill:#010101;}.cls-2{fill:#020202;}</style></defs><polygon class="cls-1" points="7.69 79.36 7.69 60.65 0 60.65 0 79.36 0 87.05 7.69 87.05 26.4 87.05 26.4 79.36 7.69 79.36"/><polygon class="cls-1" points="7.69 7.69 7.69 26.4 0 26.4 0 7.69 0 0 7.69 0 26.4 0 26.4 7.69 7.69 7.69"/><polygon class="cls-1" points="79.91 79.36 79.91 60.65 87.61 60.65 87.61 79.36 87.61 87.05 79.91 87.05 61.21 87.05 61.21 79.36 79.91 79.36"/><polygon class="cls-1" points="79.91 7.69 79.91 26.4 87.61 26.4 87.61 7.69 87.61 0 79.91 0 61.21 0 61.21 7.69 79.91 7.69"/><rect class="cls-2" x="48.83" y="64.86" width="7.69" height="7.69" transform="translate(121.38 16.02) rotate(90)"/><rect class="cls-2" x="48.83" y="48.63" width="7.69" height="7.69" transform="translate(105.16 -.2) rotate(90)"/><rect class="cls-2" x="65.06" y="64.86" width="7.69" height="7.69" transform="translate(137.61 -.21) rotate(90)"/><rect class="cls-2" x="65.06" y="48.63" width="7.69" height="7.69" transform="translate(121.39 -16.43) rotate(90)"/><rect class="cls-2" x="57.32" y="56.8" width="7.69" height="7.69" transform="translate(121.81 -.52) rotate(90)"/><path class="cls-1" d="M14.82,48.63v23.76h23.92v-23.74H14.82ZM22.51,64.7v-8.37h8.54v8.37h-8.54Z"/><path class="cls-1" d="M38.39,14.91v-.18H14.82v23.76h23.92V14.91h-.35ZM22.51,30.8v-8.37h8.54v8.37h-8.54Z"/><path class="cls-1" d="M72.41,14.91v-.18h-23.58v23.76h23.92V14.91h-.35ZM56.53,30.8v-8.37h8.54v8.37h-8.54Z"/></svg>