<?xml version="1.0" encoding="UTF-8"?><svg id="Layer_1" xmlns="http://www.w3.org/2000/svg" viewBox="0 0 101.16 105.39"><defs><style>.cls-1{fill:#ffe8d1;}.cls-2{fill:#ebebeb;}.cls-3{fill:#ffc97d;}.cls-4{fill:#fff;}.cls-5{fill:#262626;}</style></defs><polygon class="cls-3" points="41.84 61.71 22.86 42.73 14.2 51.39 27.29 64.48 41.84 61.71"/><polygon class="cls-4" points="29.97 46.23 56.86 73.12 40.59 105.39 26.04 66.84 29.97 46.23"/><path class="cls-4" d="M40.33,57.05h55.85v22.3c0,14.23-11.56,25.79-25.79,25.79h-4.27c-14.23,0-25.79-11.56-25.79-25.79v-22.3h0Z" transform="translate(136.5 162.19) rotate(-180)"/><path d="M44.75,82.41h3.89s0-10.14,0-10.14c0-2.34.91-4.54,2.57-6.2,1.65-1.65,3.85-2.57,6.19-2.57,4.83,0,8.76,3.93,8.76,8.76v10.14s3.89,0,3.89,0v-10.14c0-6.98-5.68-12.65-12.65-12.65-3.38,0-6.55,1.32-8.94,3.71-2.39,2.39-3.71,5.57-3.71,8.95v10.14Z"/><path class="cls-2" d="M46.7,72.27v10.14"/><rect class="cls-1" x="44.45" y="72.27" width="4.49" height="10.14"/><path class="cls-2" d="M68.11,82.41v-10.14"/><rect class="cls-1" x="65.74" y="72.27" width="4.73" height="10.14"/><rect x="63.76" y="79.26" width="6.8" height="8.33" rx="3.4" ry="3.4" transform="translate(88.01 188.47) rotate(-152.38)"/><rect x="44.14" y="79.26" width="6.8" height="8.33" rx="3.4" ry="3.4" transform="translate(-33.25 31.54) rotate(-27.62)"/><rect x="80.76" y="60.83" width="4.38" height="16.01" transform="translate(165.91 137.67) rotate(-180)"/><circle class="cls-1" cx="82.95" cy="81.91" r="6.1"/><circle class="cls-4" cx="82.95" cy="81.91" r="3.52"/><circle class="cls-1" cx="84.3" cy="27.57" r="14.75"/><circle class="cls-1" cx="55.62" cy="30.23" r="15.65"/><rect class="cls-3" x="35.34" y="32.54" width="65.83" height="15.28" rx="7.64" ry="7.64" transform="translate(136.5 80.36) rotate(-180)"/><circle class="cls-3" cx="68.25" cy="38.74" r="27.49"/><path class="cls-5" d="M55.48,45.48c0,7.05,5.72,12.77,12.77,12.77s12.77-5.72,12.77-12.77h-25.55Z"/><circle class="cls-1" cx="84.71" cy="20.87" r="12.25"/><circle class="cls-1" cx="75.23" cy="12.3" r="10.69"/><circle class="cls-1" cx="61.14" cy="14.29" r="14.29"/><circle class="cls-1" cx="48.68" cy="22.2" r="6.4"/><rect class="cls-4" x="5.65" y="17.74" width="20.49" height="35.9" rx="4.37" ry="4.37" transform="translate(15.48 74.75) rotate(-155.39)"/><rect class="cls-5" x="6.86" y="18.95" width="18.13" height="33.33" rx="3.44" ry="3.44" transform="translate(15.58 74.62) rotate(-155.39)"/><rect class="cls-4" x="18.07" y="19.76" width="9.02" height="2.64" rx=".6" ry=".6" transform="translate(34.33 49.65) rotate(-155.39)"/><path class="cls-1" d="M9.96,32.97c1.49-3.26,5.35-4.69,8.61-3.2,3.26,1.49,4.69,5.35,3.2,8.61s-5.35,4.69-8.61,3.2-4.69-5.35-3.2-8.61ZM11.22,33.55c-1.17,2.56-.04,5.6,2.52,6.78s5.6.04,6.78-2.52.04-5.6-2.52-6.78-5.6-.04-6.78,2.52Z"/><rect class="cls-1" x="16.09" y="35.33" width="1.43" height="3.94" rx=".72" ry=".72" transform="translate(-12.3 66.05) rotate(-110.39)"/><rect class="cls-1" x="13.96" y="32.26" width="1.43" height="6.31" rx=".72" ry=".72" transform="translate(40.78 63.48) rotate(159.61)"/><rect class="cls-3" x="4.21" y="26.69" width="6.49" height="6.12" rx="3.06" ry="3.06" transform="translate(1.86 59.91) rotate(-155.39)"/><rect class="cls-3" x="2.18" y="31.13" width="6.49" height="6.12" rx="3.06" ry="3.06" transform="translate(-3.88 67.55) rotate(-155.39)"/><rect class="cls-3" x="-.02" y="35.92" width="6.49" height="6.12" rx="3.06" ry="3.06" transform="translate(-10.06 75.78) rotate(-155.39)"/><rect class="cls-3" x="15.94" y="38.51" width="16.35" height="7.1" rx="3.55" ry="3.55" transform="translate(-20.98 59.85) rotate(-81.7)"/></svg>