<?xml version="1.0" encoding="UTF-8"?><svg id="Layer_1" xmlns="http://www.w3.org/2000/svg" viewBox="0 0 37.6 37.6"><defs><style>.cls-1{fill:#fff;}</style></defs><path class="cls-1" d="M18.8,0C8.43,0,0,8.43,0,18.8s8.43,18.8,18.8,18.8,18.8-8.43,18.8-18.8S29.17,0,18.8,0ZM18.8,33.6c-8.16,0-14.8-6.64-14.8-14.8s6.64-14.8,14.8-14.8,14.8,6.64,14.8,14.8-6.64,14.8-14.8,14.8Z"/><path class="cls-1" d="M28.71,13.08c-.81-.81-2.12-.81-2.93,0l-8.67,8.67-3.84-3.84c-.81-.81-2.12-.81-2.93,0s-.81,2.12,0,2.93l5.15,5.15c.44.44,1.04.64,1.62.59.58.04,1.18-.15,1.62-.59l9.98-9.98c.81-.81.81-2.12,0-2.93Z"/></svg>