<?xml version="1.0" encoding="UTF-8"?><svg id="Layer_1" xmlns="http://www.w3.org/2000/svg" viewBox="0 0 66.62 66.82"><defs><style>.cls-1{fill:#231f20;}.cls-2{fill:#ff5961;}.cls-3{opacity:.2;}.cls-3,.cls-4,.cls-5{fill:#a6a6a8;}.cls-4{opacity:.7;}.cls-6{fill:#fff;}.cls-7{opacity:.5;}.cls-8{fill:#dadce2;}.cls-9{fill:#f3f8f9;}</style></defs><path class="cls-8" d="M50.9,56.05c0,1.01-3.92,1.83-8.75,1.83-.75,0-1.47-.02-2.17-.06-3.44-.18-6.07-.79-6.51-1.55-.04-.08-.07-.15-.07-.23,0-.79,2.4-1.46,5.75-1.72.94-.07,1.95-.11,3-.11,4.3,0,7.89.65,8.61,1.51.09.1.14.21.14.32Z"/><g class="cls-7"><path class="cls-8" d="M41.5,62.44c-10.96,0-19.23-3.21-19.23-7.46s8.27-7.46,19.23-7.46,19.23,3.21,19.23,7.46c0,2.66-3.21,4.96-8.81,6.32-.43.1-.86-.16-.96-.59-.1-.43.16-.86.59-.96,4.61-1.11,7.59-2.99,7.59-4.77,0-2.77-7.24-5.86-17.64-5.86s-17.64,3.09-17.64,5.86,7.24,5.86,17.64,5.86c.76,0,1.52-.02,2.27-.05.43-.02.81.32.83.76.02.44-.32.81-.76.83-.77.03-1.56.05-2.34.05Z"/><path class="cls-8" d="M43.87,66.82c-2.1,0-4.33-.16-6.65-.54-.43-.07-.73-.48-.66-.92.07-.43.48-.73.92-.66,12.29,2.01,22.1-2.62,22.2-2.67.39-.19.87-.03,1.06.37.19.4.03.87-.37,1.06-.34.16-7.05,3.34-16.5,3.34Z"/><path class="cls-8" d="M19.16,61.03c-.18,0-.37-.06-.52-.2-.09-.08-2.2-1.94-2.02-4.65.14-2.03,1.51-3.92,4.07-5.6.37-.24.86-.14,1.1.23.24.37.14.86-.23,1.1-2.12,1.39-3.25,2.86-3.36,4.36-.14,1.91,1.46,3.34,1.47,3.35.33.29.36.79.07,1.12-.16.18-.38.27-.6.27Z"/><path class="cls-8" d="M65.82,57.42c-.39,0-.73-.28-.79-.68-.03-.18-.72-4.12-6.54-5.7-.43-.12-.68-.55-.56-.98.12-.42.55-.67.98-.56,6.89,1.87,7.67,6.8,7.7,7.01.06.44-.24.84-.68.9-.04,0-.08,0-.11,0Z"/></g><path class="cls-8" d="M50.76,32.88v23.4h-17.45v-19.98h-8.41v-17.44h11.82c4.76,0,8.96,2.37,11.5,5.99,1.6,2.28,2.54,5.05,2.54,8.04Z"/><path class="cls-3" d="M50.76,32.88v4.17l-20.64-11.03s-2.65.32-5.22-1.12v-6.05h11.82c4.76,0,8.96,2.37,11.5,5.99,1.6,2.28,2.54,5.05,2.54,8.04Z"/><ellipse class="cls-5" cx="25.16" cy="27.31" rx="5.17" ry="9.99"/><rect class="cls-5" x="17.5" y="17.32" width="7.95" height="19.98" transform="translate(42.96 54.63) rotate(-180)"/><ellipse class="cls-8" cx="17.6" cy="27.31" rx="5.17" ry="9.99"/><path class="cls-5" d="M21.1,27.31c0,3.89-1.26,7.12-2.91,7.75-.19.07-.39.11-.59.11-1.93,0-3.5-3.52-3.5-7.86s1.57-7.86,3.5-7.86c.2,0,.4.04.6.12,1.65.63,2.9,3.86,2.9,7.75Z"/><path class="cls-9" d="M21.1,27.31c0,3.89-1.26,7.12-2.91,7.75-1.87-.09-3.37-3.53-3.37-7.75s1.5-7.67,3.38-7.75c1.65.63,2.9,3.86,2.9,7.75Z"/><ellipse class="cls-8" cx="17.36" cy="25.37" rx="4.29" ry="2.03" transform="translate(-10.37 38.64) rotate(-81.18)"/><ellipse cx="17.38" cy="25.25" rx="3.37" ry="1.25" transform="translate(-10.23 38.55) rotate(-81.18)"/><ellipse class="cls-9" cx="17.74" cy="21.72" rx="1.38" ry=".79" transform="translate(-6.43 35.92) rotate(-81.18)"/><path class="cls-8" d="M44.83,8.1c-.13.26-.27.52-.41.78-1.23,2.23-2.87,4.2-4.82,5.8-3.46,2.85-7.89,4.56-12.72,4.56-5.39,0-10.29-2.13-13.88-5.59l-1.38,1.87-2.82,3.83c-1.54,2.09-4.45,2.6-6.6,1.17-.05-.03-.11-.07-.16-.11C-.19,18.82-.67,15.72.98,13.53L7.6,4.71C10.4.99,15.12-.74,19.66.3l24.79,7.14c-.24.64.68.06.38.67Z"/><path class="cls-4" d="M12.99,13.65l-1.38,1.87-2.82,3.83c-1.54,2.09-4.45,2.6-6.6,1.17,7.08-6.83,8.56-12.02,8.56-12.02.42,2.76,2.24,5.15,2.24,5.15Z"/><path class="cls-4" d="M44.41,8.88c-1.23,2.23-2.87,4.2-4.82,5.8l-6.92.11c-7.24.12-13.09-5.88-12.8-13.12l24.53,7.21Z"/><polygon class="cls-8" points="12.85 23.34 12.81 23.32 7.16 21.04 6.84 18.37 6.88 18.37 9.48 18.21 12.85 23.34"/><polygon class="cls-5" points="12.81 23.32 7.16 21.04 6.84 18.37 6.88 18.37 12.81 23.32"/><circle cx="4.61" cy="17.86" r="1.12"/><path class="cls-1" d="M19.73.35l43.65,10.05-30.09,2.28c-7.22.55-13.42-5.09-13.56-12.33h0,0Z"/><circle class="cls-6" cx="51.35" cy="39.92" r="11.18"/><path class="cls-2" d="M50.76,26.35c-7.49,0-13.58,6.09-13.58,13.58s6.09,13.58,13.58,13.58,13.58-6.09,13.58-13.58-6.09-13.58-13.58-13.58ZM50.76,50.61c-5.89,0-10.69-4.8-10.69-10.69s4.8-10.69,10.69-10.69,10.69,4.8,10.69,10.69-4.8,10.69-10.69,10.69Z"/><rect class="cls-2" x="48.43" y="31.76" width="4.65" height="8.7" rx="2.33" ry="2.33"/><rect class="cls-2" x="48.43" y="42.26" width="4.65" height="4.95" rx="2.33" ry="2.33"/></svg>