<?xml version="1.0" encoding="UTF-8"?><svg id="Layer_1" xmlns="http://www.w3.org/2000/svg" viewBox="0 0 183.26 126.34"><defs><style>.cls-1{fill:#ffe8d1;}.cls-2{fill:#231f20;}.cls-3{fill:#ffc97d;}.cls-4{fill:#fff;}</style></defs><path class="cls-2" d="M3.72,54.11c-3.94-3.46-4.25-9.13-.71-13.17,3.55-4.04,9.21-4.46,13.15-1,3.94,3.46,4.25,9.14.71,13.17-3.55,4.04-9.21,4.46-13.15,1ZM13.46,43.02c-2.31-2.03-5.56-1.82-7.55.45-2,2.27-1.78,5.52.53,7.55s5.56,1.82,7.55-.45c1.99-2.27,1.78-5.52-.53-7.55Z"/><path class="cls-2" d="M13.27,30.79l6.47-5.12c2.8-2.21,6.52-1.83,8.67.88,2.15,2.72,1.66,6.43-1.14,8.64l-3.32,2.63,3.53,4.46-3.14,2.49-11.06-13.98ZM18.75,31.26l2.85,3.61,3.26-2.58c.99-.79,1.12-2.17.32-3.18-.82-1.03-2.18-1.21-3.17-.42l-3.26,2.58Z"/><path class="cls-2" d="M28.37,19.43l7.21-4c3.12-1.73,6.73-.75,8.42,2.27,1.68,3.03.6,6.61-2.52,8.35l-3.71,2.06,2.76,4.97-3.5,1.94-8.66-15.59ZM33.7,20.78l2.23,4.02,3.64-2.02c1.11-.62,1.45-1.96.83-3.09-.64-1.15-1.95-1.55-3.06-.93l-3.64,2.02Z"/><path class="cls-2" d="M45.38,10.28l4.72-1.53,7.61,7.2,1.95-10.31,4.67-1.52,5.52,16.96-3.81,1.24-3.68-11.31-1.85,9.95-2.16.7-7.32-6.97,3.68,11.31-3.81,1.24-5.52-16.96Z"/><path class="cls-2" d="M73.6,17.91c-1.66-1.46-2.78-3.56-3.04-6-.54-5.22,3.09-9.6,8.44-10.15,1.88-.19,3.65.12,5.18.84l.79-1.15,3.26-.34-1.94,2.85c1.66,1.47,2.78,3.53,3.04,6,.54,5.22-3.09,9.59-8.44,10.15-1.88.19-3.65-.12-5.21-.84l-.79,1.15-3.26.34,1.97-2.85ZM75.92,14.53l5.97-8.62c-.76-.29-1.6-.41-2.5-.31-3.01.31-5.06,2.83-4.74,5.89.12,1.18.59,2.22,1.28,3.04ZM85.24,10.4c-.12-1.21-.6-2.25-1.3-3.06l-5.94,8.62c.76.31,1.6.43,2.5.34,3.01-.31,5.06-2.84,4.74-5.89Z"/><path class="cls-2" d="M95.44,5.3l-4.67-.27.22-3.77,13.34.76-.22,3.77-4.67-.27-.8,14.04-4-.23.8-14.04Z"/><path class="cls-2" d="M108.57,2.65l11.6,2.34-.75,3.7-7.68-1.55-.64,3.14,6.84,1.38-.75,3.7-6.84-1.38-.66,3.24,7.8,1.58-.75,3.7-11.73-2.37,3.53-17.48Z"/><path class="cls-2" d="M124.8,6.27l8.3,3.04c2.52.93,3.81,3.43,2.89,5.93-.56,1.53-1.81,2.61-3.12,2.87,1.35,1.19,1.8,3.36,1.07,5.35-.97,2.64-3.68,3.8-6.39,2.8l-8.88-3.26,6.14-16.74ZM124.87,17.34l-1.33,3.61,4.32,1.58c1.02.37,2.08-.12,2.45-1.14.37-1.02-.11-2.1-1.13-2.48l-4.32-1.58ZM127.2,11l-1.16,3.15,3.71,1.36c.87.32,1.8-.11,2.13-1.01.34-.92-.08-1.82-.97-2.15l-3.71-1.36Z"/><path class="cls-2" d="M137.37,20.44c2.65-4.53,8.16-5.91,12.8-3.2s6.13,8.2,3.48,12.73c-2.65,4.53-8.16,5.91-12.8,3.19-4.64-2.72-6.13-8.2-3.48-12.73ZM150.11,27.9c1.55-2.65.73-5.8-1.88-7.33-2.61-1.53-5.76-.71-7.31,1.95-1.55,2.65-.73,5.8,1.88,7.33,2.61,1.53,5.76.7,7.31-1.95Z"/><path class="cls-2" d="M162.08,25.39l3.04,2.61-4.95,5.77,9.56-1.81,3.71,3.18-10.59,1.91-.84,11.78-3.79-3.25.67-7.93-2.3.3-3.08,3.59-3.04-2.61,11.61-13.54Z"/><path class="cls-2" d="M179.71,42.31l3,3.66-9.53,16.5-2.79-3.4,1.73-2.82-4.6-5.62-3.12,1.12-2.72-3.32,18.03-6.13ZM174.15,52.88l3.62-5.98-6.57,2.38,2.95,3.6Z"/><polygon class="cls-3" points="102.24 92.31 117.03 77.52 123.78 84.27 113.58 94.47 102.24 92.31"/><polygon class="cls-1" points="111.49 80.25 90.54 101.2 103.22 126.34 114.55 96.31 111.49 80.25"/><path class="cls-1" d="M80.01,88.68h3.33c11.09,0,20.09,9,20.09,20.09v17.37h-43.5v-17.37c0-11.09,9-20.09,20.09-20.09Z"/><path d="M99.97,108.43h-3.03v-7.9c0-1.82-.71-3.54-2-4.83-1.29-1.29-3-2-4.82-2-3.76,0-6.83,3.06-6.83,6.83v7.9h-3.03v-7.9c0-5.44,4.42-9.86,9.86-9.86,2.63,0,5.1,1.03,6.97,2.89,1.86,1.86,2.89,4.34,2.89,6.97v7.9Z"/><rect class="cls-4" x="96.71" y="100.54" width="3.5" height="7.9"/><rect class="cls-4" x="79.94" y="100.54" width="3.69" height="7.9"/><rect x="79.87" y="105.98" width="5.3" height="6.49" rx="2.65" ry="2.65" transform="translate(-41.23 50.69) rotate(-27.62)"/><rect x="95.15" y="105.98" width="5.3" height="6.49" rx="2.65" ry="2.65" transform="translate(133.83 251.33) rotate(-152.38)"/><rect x="68.51" y="91.63" width="3.41" height="12.47"/><circle class="cls-4" cx="70.22" cy="108.04" r="4.75"/><circle class="cls-1" cx="70.22" cy="108.04" r="2.74"/><circle class="cls-2" cx="69.17" cy="65.71" r="11.49"/><circle class="cls-2" cx="91.51" cy="67.78" r="12.19"/><rect class="cls-3" x="56.03" y="69.59" width="51.28" height="11.9" rx="5.95" ry="5.95"/><circle class="cls-3" cx="81.67" cy="74.42" r="21.41"/><path class="cls-4" d="M91.62,79.67c0,5.49-4.45,9.95-9.95,9.95s-9.95-4.46-9.95-9.95h19.9Z"/><circle class="cls-2" cx="68.85" cy="60.49" r="9.55"/><circle class="cls-2" cx="76.24" cy="53.82" r="8.32"/><circle class="cls-2" cx="87.21" cy="55.37" r="11.13"/><circle class="cls-2" cx="96.91" cy="61.53" r="4.99"/><rect x="114.47" y="58.06" width="15.96" height="27.96" rx="3.4" ry="3.4" transform="translate(-18.87 57.53) rotate(-24.61)"/><rect class="cls-4" x="115.37" y="59" width="14.12" height="25.96" rx="2.68" ry="2.68" transform="translate(-18.85 57.51) rotate(-24.61)"/><rect x="113.73" y="59.63" width="7.02" height="2.06" rx=".47" ry=".47" transform="translate(-14.61 54.33) rotate(-24.61)"/><path class="cls-2" d="M124.58,76.63c-2.54,1.16-5.54.04-6.71-2.49s-.04-5.54,2.49-6.71,5.54-.04,6.71,2.49.04,5.54-2.49,6.71ZM120.82,68.41c-2,.91-2.88,3.28-1.96,5.28s3.28,2.88,5.28,1.96,2.88-3.28,1.96-5.28-3.28-2.88-5.28-1.96Z"/><rect class="cls-2" x="121.19" y="71.76" width="1.11" height="3.07" rx=".56" ry=".56" transform="translate(10.62 161.87) rotate(-69.61)"/><rect class="cls-2" x="122.84" y="69.37" width="1.11" height="4.91" rx=".56" ry=".56" transform="translate(32.76 -38.5) rotate(20.39)"/><rect class="cls-3" x="126.49" y="65.03" width="5.06" height="4.77" rx="2.39" ry="2.39" transform="translate(-16.35 59.84) rotate(-24.61)"/><rect class="cls-3" x="128.08" y="68.49" width="5.06" height="4.77" rx="2.39" ry="2.39" transform="translate(-17.65 60.82) rotate(-24.61)"/><rect class="cls-3" x="129.79" y="72.22" width="5.06" height="4.77" rx="2.39" ry="2.39" transform="translate(-19.05 61.87) rotate(-24.61)"/><rect class="cls-3" x="109.68" y="74.23" width="12.74" height="5.53" rx="2.76" ry="2.76" transform="translate(56.6 202.95) rotate(-98.3)"/><path class="cls-3" d="M109.55,56.62l.23.41c.27.47-.15,1.04-.68.93l-.46-.09-.32.34c-.37.4-1.03.18-1.1-.36l-.05-.46-.42-.19c-.49-.23-.49-.93,0-1.15l.42-.19.05-.46c.06-.54.73-.76,1.1-.36l.32.34.46-.09c.53-.11.94.46.68.93l-.23.41Z"/><path class="cls-3" d="M123.67,45.88l.52.92c.61,1.07-.33,2.36-1.54,2.12l-1.04-.21-.72.78c-.83.91-2.35.42-2.49-.81l-.12-1.05-.96-.44c-1.12-.51-1.12-2.11,0-2.62l.96-.44.12-1.05c.14-1.23,1.66-1.72,2.49-.81l.72.78,1.04-.21c1.21-.24,2.15,1.05,1.54,2.12l-.52.92Z"/><path class="cls-3" d="M134.56,57.19l-.12.74c-.14.87-1.23,1.17-1.79.5l-.49-.57-.74.12c-.87.14-1.49-.81-1.03-1.55l.4-.64-.34-.67c-.4-.78.31-1.67,1.16-1.46l.73.18.53-.53c.62-.62,1.68-.23,1.75.65l.06.75.67.34c.78.4.73,1.53-.08,1.86l-.7.28Z"/></svg>