<?xml version="1.0" encoding="UTF-8"?><svg id="Layer_1" xmlns="http://www.w3.org/2000/svg" viewBox="0 0 49.6 58.63"><defs><style>.cls-1{fill:#ff9d00;}.cls-2,.cls-3{fill:#ffc97d;}.cls-3{opacity:.5;}</style></defs><path class="cls-1" d="M18.8,21.03C8.43,21.03,0,29.46,0,39.83s8.43,18.8,18.8,18.8,18.8-8.43,18.8-18.8-8.43-18.8-18.8-18.8ZM18.8,54.63c-8.16,0-14.8-6.64-14.8-14.8s6.64-14.8,14.8-14.8,14.8,6.64,14.8,14.8-6.64,14.8-14.8,14.8Z"/><path class="cls-1" d="M28.71,34.11c-.81-.81-2.12-.81-2.93,0l-8.67,8.67-3.84-3.84c-.81-.81-2.12-.81-2.93,0s-.81,2.12,0,2.93l5.15,5.15c.44.44,1.04.64,1.62.59.58.04,1.18-.15,1.62-.59l9.98-9.98c.81-.81.81-2.12,0-2.93Z"/><path class="cls-2" d="M15.11,5.24l.67,1.18c.78,1.38-.43,3.03-1.98,2.72l-1.33-.27-.92,1c-1.07,1.17-3.02.53-3.2-1.04l-.16-1.35-1.24-.57c-1.44-.66-1.44-2.7,0-3.36l1.24-.57.16-1.35c.18-1.57,2.13-2.2,3.2-1.04l.92,1,1.33-.27c1.55-.31,2.75,1.34,1.98,2.72l-.67,1.18Z"/><path class="cls-3" d="M47.88,26.56l-.15.95c-.18,1.11-1.58,1.5-2.3.64l-.62-.74-.95.15c-1.11.18-1.92-1.03-1.32-1.99l.51-.82-.44-.86c-.51-1,.39-2.14,1.49-1.87l.94.23.68-.68c.8-.8,2.16-.29,2.24.83l.07.96.86.44c1,.51.94,1.96-.1,2.39l-.89.37Z"/></svg>